<svg height="479pt" viewBox="0 -70 479.98481 479" width="479pt" xmlns="http://www.w3.org/2000/svg"><g fill="#4398d1"><path d="m327.996094 240.492188h16v96h-16zm0 0"/><path d="m434.246094 220.457031 15.5-3.941406 30 117.996094-15.5 3.941406zm0 0"/><path d="m439.996094 96.492188-24 112h-88v32h120l24-144zm0 0"/><path d="m135.996094 240.492188h16v96h-16zm0 0"/><path d="m.265625 334.460938 30.992187-118.007813 15.46875 4.0625-30.992187 118.007813zm0 0"/><path d="m39.996094 96.492188 24 112h88v32h-120l-24-144zm0 0"/></g><path d="m263.996094 32.492188v24c0 4.417968-3.582032 8-8 8h-8v-32h-16v32h-8c-4.417969 0-8-3.582032-8-8v-24h-16v24c0 13.253906 10.746094 24 24 24h8v40h16v-40h8c13.257812 0 24-10.746094 24-24v-24zm0 0" fill="#fdb62f"/><path d="m231.996094.492188h16v16h-16zm0 0" fill="#dd4a43"/><path d="m263.996094.492188h16v16h-16zm0 0" fill="#dd4a43"/><path d="m199.996094.492188h16v16h-16zm0 0" fill="#dd4a43"/><path d="m127.996094 40.492188v31.054687c-.113282 10.417969 6.269531 19.808594 16 23.53125v25.414063h16v-25.511719c9.554687-3.359375 15.960937-12.363281 16-22.488281v-32zm0 0" fill="#cfcfcd"/><path d="m143.996094 95.078125 16-.097656c9.554687-3.359375 15.960937-12.363281 16-22.488281h-47.925782c.234376 10.0625 6.527344 18.984374 15.925782 22.585937zm0 0" fill="#dd4a43"/><path d="m303.996094 40.492188v31.054687c-.113282 10.417969 6.269531 19.808594 16 23.53125v25.414063h16v-25.511719c9.554687-3.359375 15.960937-12.363281 16-22.488281v-32zm0 0" fill="#cfcfcd"/><path d="m319.996094 95.078125 16-.097656c9.554687-3.359375 15.960937-12.363281 16-22.488281h-47.925782c.234376 10.0625 6.527344 18.984374 15.925782 22.585937zm0 0" fill="#dd4a43"/><path d="m87.996094 120.492188h304v32h-304zm0 0" fill="#af6135"/><path d="m103.996094 152.492188h16v184h-16zm0 0" fill="#cfcfcd"/><path d="m359.996094 152.492188h16v184h-16zm0 0" fill="#cfcfcd"/><path d="m103.996094 152.492188h16v16h-16zm0 0" fill="#ccccca"/><path d="m359.996094 152.492188h16v16h-16zm0 0" fill="#ccccca"/><path d="m119.996094 208.492188h16v32h-16zm0 0" fill="#3e8dc2"/><path d="m375.996094 208.492188h16v32h-16zm0 0" fill="#3e8dc2"/><path d="m1.894531 91.324219c-1.519531 1.796875-2.171875 4.167969-1.785156 6.488281l23.726563 142.359375-23.597657 94.402344 15.519531 3.886719 22.480469-89.96875h65.757813v88h16v-88h16v88h16v-128c0-4.417969-3.582032-8-8-8h-24v-40h240v40h-24c-4.417969 0-8 3.582031-8 8v128h16v-88h16v88h16v-88h65.761718l22.480469 89.945312 15.519531-3.890625-23.601562-94.398437 23.730469-142.398438c.367187-2.3125-.296875-4.667969-1.8125-6.445312-1.519531-1.78125-3.738281-2.808594-6.078125-2.8125h-32c-3.773438 0-7.035156 2.636718-7.824219 6.328124l-22.644531 105.671876h-33.53125v-40h16c4.417968 0 8-3.582032 8-8v-32c0-4.417969-3.582032-8-8-8h-56v-17.472657c9.554687-3.378906 15.960937-12.394531 16-22.527343v-24c0-4.417969-3.582032-8-8-8h-32c-4.417969 0-8 3.582031-8 8v24c.042968 10.132812 6.445312 19.148437 16 22.527343v17.472657h-72v-32h8c13.257812 0 24-10.746094 24-24v-24h-16v24c0 4.417968-3.582032 8-8 8h-8v-32h-16v32h-8c-4.417969 0-8-3.582032-8-8v-24h-16v24c0 13.253906 10.746094 24 24 24h8v32h-72v-17.472657c9.554687-3.378906 15.960937-12.394531 16-22.527343v-24c0-4.417969-3.582032-8-8-8h-32c-4.417969 0-8 3.582031-8 8v24c.042968 10.132812 6.445312 19.148437 16 22.527343v17.472657h-56c-4.417969 0-8 3.582031-8 8v32c0 4.417968 3.582031 8 8 8h16v40h-33.527344l-22.648438-105.671876c-.789062-3.691406-4.046874-6.328124-7.824218-6.328124h-32c-2.351563 0-4.582032 1.035156-6.101563 2.832031zm342.101563 141.167969v-16h16v16zm72-16c3.777344 0 7.035156-2.636719 7.824218-6.328126l22.648438-105.671874h16.082031l-21.328125 128h-65.226562v-16zm-96-160h16v16c0 4.417968-3.582032 8-8 8-4.417969 0-8-3.582032-8-8zm-176 0h16v16c0 4.417968-3.582032 8-8 8-4.417969 0-8-3.582032-8-8zm-48 72h288v16h-288zm40 88v16h-16v-16zm-102.46875-112 22.644531 105.671874c.789063 3.691407 4.050781 6.328126 7.824219 6.328126h40v16h-65.222656l-21.328126-128zm0 0"/><path d="m231.996094.492188h16v16h-16zm0 0"/><path d="m263.996094.492188h16v16h-16zm0 0"/><path d="m199.996094.492188h16v16h-16zm0 0"/></svg>