<svg id="Capa_1" data-name="Capa 1" xmlns="http://www.w3.org/2000/svg" viewBox="0 0 44 38"><defs><style>.cls-1{fill:#9297a9;}</style></defs><title>NUEVOS ICONOS</title><path class="cls-1" d="M36.07,20.76a15.43,15.43,0,0,0,.12-1.84A11.66,11.66,0,0,0,36,17.07l4-3.12a1,1,0,0,0,.24-1.21L36.49,6.19a1,1,0,0,0-1.16-.43L30.63,7.66a13.85,13.85,0,0,0-3.19-1.84l-.71-5a.94.94,0,0,0-.95-.8H18.22a.92.92,0,0,0-.92.8l-.71,5a14.22,14.22,0,0,0-3.19,1.84L8.69,5.77a.94.94,0,0,0-1.16.43L3.75,12.74A.92.92,0,0,0,4,13.95l4,3.12a11.14,11.14,0,0,0,0,3.69L4,23.88a1,1,0,0,0-.24,1.21l3.78,6.55a1,1,0,0,0,1.16.43l4.71-1.89A13.85,13.85,0,0,0,16.56,32l.71,5a1,1,0,0,0,.95.8h7.57a.9.9,0,0,0,.92-.8l.71-5a14.22,14.22,0,0,0,3.19-1.84l4.71,1.89a.94.94,0,0,0,1.16-.43l3.78-6.55A.92.92,0,0,0,40,23.88ZM22,26a7.09,7.09,0,1,1,7.09-7.09A7.11,7.11,0,0,1,22,26Z"/></svg>