<svg xmlns="http://www.w3.org/2000/svg" viewBox="0 0 16.79 29.68"><defs><style>.cls-1{fill:#fff;}</style></defs><title>Recurso 2</title><g id="Capa_2" data-name="Capa 2"><g id="Capa_4" data-name="Capa 4"><path class="cls-1" d="M9,13c-3.74-1-4.95-2-4.95-3.55,0-1.8,1.67-3.05,4.45-3.05s4,1.4,4.12,3.46h3.64A6.57,6.57,0,0,0,11,3.61V0H6.07V3.56C2.87,4.25.3,6.33.3,9.51c0,3.81,3.15,5.71,7.75,6.81,4.12,1,4.95,2.44,4.95,4,0,1.14-.81,3-4.45,3-3.4,0-4.73-1.52-4.91-3.46H0c.2,3.61,2.9,5.64,6.07,6.32v3.58H11V26.14c3.22-.61,5.77-2.47,5.77-5.85C16.79,15.6,12.78,14,9,13Z"/></g></g></svg>