<svg xmlns="http://www.w3.org/2000/svg" viewBox="0 0 41.25 30"><defs><style>.cls-1{fill:#fff;}</style></defs><title>proveedores</title><g id="Capa_2" data-name="Capa 2"><g id="MENU"><path class="cls-1" d="M35.63,7.5H30V0H3.75A3.76,3.76,0,0,0,0,3.75V24.38H3.75a5.63,5.63,0,0,0,11.25,0H26.25a5.63,5.63,0,0,0,11.25,0h3.75V15ZM9.38,27.19a2.81,2.81,0,1,1,2.81-2.81A2.81,2.81,0,0,1,9.38,27.19ZM34.69,10.31,38.36,15H30V10.31ZM31.88,27.19a2.81,2.81,0,1,1,2.81-2.81A2.81,2.81,0,0,1,31.88,27.19Z"/></g></g></svg>