<svg xmlns="http://www.w3.org/2000/svg" viewBox="0 0 33.51 35"><defs><style>.cls-1{fill:#fff;}</style></defs><title>recetas</title><g id="Capa_2" data-name="Capa 2"><g id="MENU"><g id="b149_recipes_book" data-name="b149 recipes book"><polygon class="cls-1" points="1.88 31.01 3.77 31.01 3.77 27.73 1.88 27.73 1.88 26.29 3.77 26.29 3.77 23.32 1.88 23.32 1.88 21.87 3.77 21.87 3.77 18.82 1.88 18.82 1.88 17.38 3.77 17.38 3.77 14.33 1.88 14.33 1.88 12.88 3.77 12.88 3.77 10.13 1.88 10.13 1.88 8.69 3.77 8.69 3.77 3.67 0 3.67 0 35 3.77 35 3.77 32.45 1.88 32.45 1.88 31.01"/><rect class="cls-1" x="3.76" y="8.69" width="1.59" height="1.44"/><rect class="cls-1" x="3.76" y="12.88" width="1.59" height="1.44"/><rect class="cls-1" x="3.76" y="17.38" width="1.59" height="1.44"/><rect class="cls-1" x="3.76" y="21.87" width="1.59" height="1.45"/><rect class="cls-1" x="3.76" y="26.29" width="1.59" height="1.44"/><rect class="cls-1" x="3.76" y="31.01" width="1.59" height="1.45"/><path class="cls-1" d="M33.51,31.8V1.21c0-1-1.35-1.21-1.35-1.21H3.79A3.63,3.63,0,0,0,0,2.58H29.2c1.52,0,1.48,1.2,1.48,1.2v28H28.92V3.67H5.36v5H7v1.44H5.36v2.75H7v1.44H5.36v3.05H7v1.44H5.36v3H7v1.45H5.36v3H7v1.44H5.36V31H7v1.45H5.36V35H28.92V33.16h3.15A1.28,1.28,0,0,0,33.51,31.8ZM24.45,16.54a3.8,3.8,0,0,1-3.56,1l.06.06L18.87,19.5l4.67,4.19s.13.92-1,.92l-4.67-4.19-4.69,4.21a.89.89,0,0,1-1-.92l4.7-4.21L14.7,17.6h0c-1,.35-1.56.71-2.6-.17h0L8.94,14.58l.5-.46,3.31,2.52.59-.54-3-2.87.48-.44L14,15.55l.7-.63L11.77,12l.53-.47,3.16,2.84h0c1,.94.58,1.47.19,2.34l.07-.06,2.11,1.9,2.09-1.87h0a3,3,0,0,1,1.14-3.19c1.35-1.21,3.21-1.52,4.13-.69S25.8,15.32,24.45,16.54Z"/></g></g></g></svg>