<svg xmlns="http://www.w3.org/2000/svg" viewBox="0 0 97.55 112"><defs><style>.cls-1{fill:#fff;}</style></defs><title>Recurso 11</title><g id="Capa_2" data-name="Capa 2"><g id="Capa_6" data-name="Capa 6"><path class="cls-1" d="M43.35,86.71h47V47h-47ZM47,50.58H86.71V83.1H47Zm19.87,2.6L58.26,63.47a9.77,9.77,0,0,0,7.5,16h2.15a9.76,9.76,0,0,0,7.5-16Zm1.08,22.69H65.77A6.15,6.15,0,0,1,61,65.78l5.8-7,5.8,7a6.15,6.15,0,0,1-4.72,10.09ZM1.27,94.58A12,12,0,0,0,12,112H13.7a7.92,7.92,0,0,0,5.64-2.34,4.32,4.32,0,0,1,3.08-1.28h2.12a4.33,4.33,0,0,1,3.08,1.28A7.91,7.91,0,0,0,33.26,112h1.67a12,12,0,0,0,6.79-2.15,12.57,12.57,0,0,0,7,2.15H84.9A12.66,12.66,0,0,0,97.55,99.35V39.74a12.71,12.71,0,0,0-5.06-10.12l-9.39-7V14.45h3.61v-9A5.43,5.43,0,0,0,81.29,0H52.39A5.43,5.43,0,0,0,47,5.42v9h3.61v8.13l-9.39,7a12.27,12.27,0,0,0-1.17,1,60.45,60.45,0,0,0-4.31-8.07l-3.19-5V14.45h3.61v-9A5.43,5.43,0,0,0,30.71,0H16.26a5.43,5.43,0,0,0-5.42,5.42v9h3.61v3.09l-3.2,5A60.45,60.45,0,0,0,4.13,71.62l.25.87a27,27,0,0,1,1,7.42A27.14,27.14,0,0,1,2.57,92ZM84.9,108.39H48.77a9,9,0,0,1-8.85-7.23H93.75A9,9,0,0,1,84.9,108.39ZM50.58,5.42a1.81,1.81,0,0,1,1.81-1.81h28.9A1.81,1.81,0,0,1,83.1,5.42v5.42H50.58Zm28.9,9v7.23H54.19V14.45ZM53,25.29h27.7l9.63,7.23h-47ZM39.74,93.94H90.32V90.32H39.74V39.74a9,9,0,0,1,.78-3.61H93.16a9,9,0,0,1,.78,3.61H43.35v3.61H93.94V97.55H39.74ZM14.45,5.42a1.81,1.81,0,0,1,1.81-1.81H30.71a1.81,1.81,0,0,1,1.81,1.81v5.42H14.45ZM7.07,41.55h5.58V37.94H8.07A56.78,56.78,0,0,1,14.31,24.5l3.76-5.91V14.45H28.9v4.14l3.76,5.9A56.81,56.81,0,0,1,37.51,34a12.68,12.68,0,0,0-1.24,3.92h-20v3.61H36.13v10.2a15.52,15.52,0,0,1-1.82-.93,12.83,12.83,0,0,0-7.22-2,12.82,12.82,0,0,0-7.22,2,9.36,9.36,0,0,1-5.42,1.57A9.37,9.37,0,0,1,9,50.82a15.33,15.33,0,0,0-3.28-1.5A56.91,56.91,0,0,1,7.07,41.55ZM5.49,53.06a16.33,16.33,0,0,1,1.73.9,12.84,12.84,0,0,0,7.22,2,12.82,12.82,0,0,0,7.22-2,9.38,9.38,0,0,1,5.43-1.57A9.37,9.37,0,0,1,32.51,54a14.64,14.64,0,0,0,3.61,1.6V59A15.61,15.61,0,0,1,34.3,58a12.81,12.81,0,0,0-7.22-2,12.82,12.82,0,0,0-7.22,2,9.36,9.36,0,0,1-5.42,1.57A9.39,9.39,0,0,1,9,58a14.81,14.81,0,0,0-3.54-1.58c0-.49-.05-1-.05-1.46C5.42,54.36,5.47,53.71,5.49,53.06Zm3,21H32.52V70.45h-25A56.53,56.53,0,0,1,5.71,60.39c.52.23,1,.5,1.52.79a12.86,12.86,0,0,0,7.22,2,12.84,12.84,0,0,0,7.22-2,9.35,9.35,0,0,1,5.42-1.57,9.38,9.38,0,0,1,5.43,1.57,14.57,14.57,0,0,0,3.61,1.6V93.94H5.63l.17-.33A30.78,30.78,0,0,0,9,79.91,30.47,30.47,0,0,0,8.46,74.06ZM4,97.55H36.13v1.81a12.58,12.58,0,0,0,2.84,8,8.37,8.37,0,0,1-4,1.06H33.26a4.33,4.33,0,0,1-3.08-1.28,7.91,7.91,0,0,0-5.64-2.34H22.43a7.92,7.92,0,0,0-5.64,2.34,4.32,4.32,0,0,1-3.08,1.28H12A8.38,8.38,0,0,1,4,97.55Z"/></g></g></svg>