<svg xmlns="http://www.w3.org/2000/svg" viewBox="0 0 130.5 46.83"><defs><style>.cls-1{fill:#365d66;}.cls-2{fill:#fff;}</style></defs><title>cobrar</title><g id="Capa_2" data-name="Capa 2"><g id="Capa_1-2" data-name="Capa 1"><rect class="cls-1" width="130.5" height="46.83" rx="6.49" ry="6.49"/><path class="cls-2" d="M24.14,20.48c-3.44-.89-4.54-1.82-4.54-3.26,0-1.65,1.53-2.8,4.09-2.8s3.69,1.29,3.79,3.18h3.35A6,6,0,0,0,26,11.83V8.51H21.42v3.27c-2.94.64-5.3,2.54-5.3,5.47,0,3.5,2.89,5.24,7.12,6.25,3.79.91,4.54,2.24,4.54,3.65,0,1-.74,2.71-4.09,2.71-3.12,0-4.35-1.39-4.51-3.18H15.84c.18,3.32,2.67,5.18,5.57,5.8v3.29H26V32.52c3-.56,5.3-2.27,5.3-5.38C31.26,22.84,27.58,21.37,24.14,20.48Z"/><path class="cls-2" d="M42.43,22.68A6.29,6.29,0,0,1,49,16.28a5.67,5.67,0,0,1,5.18,3l-2.26,1.11A3.36,3.36,0,0,0,49,18.62a3.86,3.86,0,0,0-3.88,4.07A3.86,3.86,0,0,0,49,26.75a3.32,3.32,0,0,0,2.92-1.8L54.2,26a5.7,5.7,0,0,1-5.18,3A6.29,6.29,0,0,1,42.43,22.68Z"/><path class="cls-2" d="M55.19,22.68a6.47,6.47,0,0,1,12.94,0,6.47,6.47,0,0,1-12.94,0Zm10.23,0a3.77,3.77,0,1,0-7.52,0,3.77,3.77,0,1,0,7.52,0Z"/><path class="cls-2" d="M70,28.86V16.48h6.52c2.36,0,3.56,1.5,3.56,3.16a2.75,2.75,0,0,1-2.13,2.84,3,3,0,0,1,2.38,3,3.26,3.26,0,0,1-3.6,3.34Zm7.39-8.76a1.33,1.33,0,0,0-1.45-1.36h-3.3v2.69h3.3A1.32,1.32,0,0,0,77.38,20.1Zm.24,5A1.45,1.45,0,0,0,76,23.7h-3.4v2.88H76A1.4,1.4,0,0,0,77.62,25.15Z"/><path class="cls-2" d="M89.31,28.86l-2.43-4.4H84.95v4.4H82.31V16.48H88.1a3.86,3.86,0,0,1,4.16,4,3.55,3.55,0,0,1-2.71,3.68l2.78,4.72Zm.26-8.39a1.68,1.68,0,0,0-1.86-1.67H84.95v3.34h2.77A1.68,1.68,0,0,0,89.57,20.47Z"/><path class="cls-2" d="M102.79,28.86l-.76-2.1H96.72l-.78,2.1h-3l4.79-12.38H101l4.77,12.38Zm-3.42-9.75-1.93,5.33h3.86Z"/><path class="cls-2" d="M114,28.86l-2.43-4.4H109.6v4.4H107V16.48h5.79a3.86,3.86,0,0,1,4.16,4,3.55,3.55,0,0,1-2.71,3.68L117,28.86Zm.26-8.39a1.68,1.68,0,0,0-1.86-1.67H109.6v3.34h2.77A1.68,1.68,0,0,0,114.22,20.47Z"/></g></g></svg>