<svg xmlns="http://www.w3.org/2000/svg" viewBox="0 0 28 28"><defs><style>.cls-1{fill:#40bab3;}.cls-2{fill:#fff;}</style></defs><title>imprimir</title><g id="Capa_2" data-name="Capa 2"><g id="Capa_1-2" data-name="Capa 1"><path class="cls-1" d="M4.59,0H23.41A4.59,4.59,0,0,1,28,4.59V28a0,0,0,0,1,0,0H4.59A4.59,4.59,0,0,1,0,23.41V4.59A4.59,4.59,0,0,1,4.59,0Z"/><path class="cls-2" d="M21,10H7a3,3,0,0,0-3,3v6H8v4H20V19h4V13A3,3,0,0,0,21,10ZM18,21H10V16h8Zm3-7a1,1,0,1,1,1-1A1,1,0,0,1,21,14ZM20,5H8V9H20Z"/></g></g></svg>